# xmcd CD database file
#
# Track frame offsets:
#	150
#	10461
#	21732
#	34785
#	47576
#	59961
#	71125
#
# Disc length: 1200 seconds
#
# Revision: 0
# Processed by: cddbd v1.5.2PL0 Copyright (c) Steve Scherf et al.
# Submitted via: CDex 1.51
#
DISCID=6a04ae07
DTITLE=Walt Cassity - Almost Famous
DYEAR=1900
DGENRE=Country
TTITLE0=01-aint enough days in a weekend
TTITLE1=02-fire
TTITLE2=03-the night time
TTITLE3=04-fire in your eyes
TTITLE4=05-the act of love
TTITLE5=06-white zone
TTITLE6=07-the price of success
EXTD=
EXTT0=
EXTT1=
EXTT2=
EXTT3=
EXTT4=
EXTT5=
EXTT6=
PLAYORDER=
